<svg xmlns="http://www.w3.org/2000/svg" viewBox="0 0 800 800" preserveAspectRatio="xMidYMid meet" role="img" aria-label="Placeholder para transformacao.jpg">
  <defs>
    <linearGradient id="bg2" x1="0" x2="1" y1="0" y2="1">
      <stop offset="0%" stop-color="#f7f7f5"/>
      <stop offset="100%" stop-color="#efeee9"/>
    </linearGradient>
  </defs>
  <rect width="100%" height="100%" rx="14" fill="url(#bg2)" stroke="#e9e9e6"/>

  <g font-family="Montserrat, Arial, sans-serif" text-anchor="middle">
    <!-- Silhueta simples -->
    <path d="M240 480c40-90 140-90 180-20 26 50 86 58 120 18 18-22 18-48 12-76-10-46-16-78-10-112 4-22-40-34-60-20-32 20-68 28-116 24-72-6-116 36-126 104-6 40 0 76 0 76z" fill="#ffffff" stroke="#e6e6e0" opacity="0.9" transform="translate(120,-40) scale(1.0)" />

    <circle cx="400" cy="300" r="46" fill="#ffffff" stroke="#e6e6e0"/>
    <text x="400" y="308" fill="#104032" font-weight="700" font-size="18">transformacao.jpg</text>

    <text x="400" y="520" fill="#7a7a74" font-size="12">Espaço reservado</text>

    <text x="400" y="756" fill="#bdbdb6" font-size="11">Quadrado / proporcional — substitua pela foto real</text>
  </g>
</svg>